:FULLY-SPECIFIED
:FORCE-ALL-JOINTS-BE-3DOF
:DEGREES
340
root 8.19735 16.0706 -20.4352 11.0999 23.8479 4.21097
lfemur -8.79554 15.7935 -10.1299
ltibia 39.8615 0 0
lfoot 6.92135 28.4451 0
ltoes -29.9275 0 0
rfemur -48.2537 -14.6704 10.179
rtibia 55.4678 0 0
rfoot 2.63259 -18.3873 0
rtoes 0.84347 0 0
lowerback -1.0251 -1.82203 -1.57352
upperback 1.72445 -2.39689 -0.063092
thorax 2.40741 -1.22274 0.742868
lowerneck -5.62445 -8.66705 -0.581485
upperneck -2.11065 -11.5363 6.61589
head 0.732131 -5.70838 1.86326
lclavicle -9.31805e-15 1.21259e-14 0
lhumerus -48.325 -34.4809 109.715
lradius 57.3252 0 0
lwrist 20.419 0 0
lhand 6.09912 12.2003 0
lfingers 7.12502 0 0
lthumb 31.4162 39.5072 0
rclavicle -9.31805e-15 1.21259e-14 0
rhumerus -22.2244 18.9487 -73.6213
rradius 84.9173 0 0
rwrist 2.38406 0 0
rhand 5.43525 -10.102 0
rfingers 7.12502 0 0
rthumb 30.6342 -756.197 0
341
root 8.13539 16.1024 -20.2542 10.8717 22.1768 3.59224
lfemur -8.11285 14.48 -9.38033
ltibia 40.166 0 0
lfoot 8.63947 28.9967 0
ltoes -28.6107 0 0
rfemur -48.1709 -15.2998 12.036
rtibia 55.1582 0 0
rfoot 1.73025 -17.4304 0
rtoes -2.09696 0 0
lowerback -1.25805 -1.73357 -1.32607
upperback 1.65122 -2.28407 0.0597627
thorax 2.45497 -1.16328 0.727804
lowerneck -5.83481 -8.39157 -0.601679
upperneck -1.76284 -11.1884 6.52805
head 0.860484 -5.52363 1.83264
lclavicle -1.65657e-15 1.21921e-14 0
lhumerus -48.282 -33.4001 109.41
lradius 57.0514 0 0
lwrist 20.7544 0 0
lhand 5.50503 11.9759 0
lfingers 7.12502 0 0
lthumb 30.8502 39.3931 0
rclavicle -1.65657e-15 1.21921e-14 0
rhumerus -23.7894 18.2795 -75.6511
rradius 84.8225 0 0
rwrist 2.2478 0 0
rhand -0.272267 -11.7073 0
rfingers 7.12502 0 0
rthumb 25.2089 -758.931 0
342
root 8.07343 16.1342 -20.0733 10.6434 20.5057 2.9735
lfemur -7.43017 13.1665 -8.63074
ltibia 40.4704 0 0
lfoot 10.3576 29.5482 0
ltoes -27.2938 0 0
rfemur -48.0881 -15.9291 13.893
rtibia 54.8486 0 0
rfoot 0.827905 -16.4734 0
rtoes -5.03738 0 0
lowerback -1.491 -1.64511 -1.07862
upperback 1.57798 -2.17125 0.182617
thorax 2.50252 -1.10382 0.712741
lowerneck -6.04517 -8.11608 -0.621873
upperneck -1.41502 -10.8405 6.44021
head 0.988837 -5.33888 1.80202
lclavicle 6.00492e-15 1.22584e-14 0
lhumerus -48.239 -32.3192 109.104
lradius 56.7777 0 0
lwrist 21.0899 0 0
lhand 4.91095 11.7515 0
lfingers 7.12502 0 0
lthumb 30.2842 39.2791 0
rclavicle 6.00492e-15 1.22584e-14 0
rhumerus -25.3545 17.6103 -77.6809
rradius 84.7278 0 0
rwrist 2.11155 0 0
rhand -5.97978 -13.3125 0
rfingers 7.12502 0 0
rthumb 19.7837 -761.666 0
343
root 8.01148 16.166 -19.8923 10.4151 18.8346 2.35477
lfemur -6.74748 11.853 -7.88115
ltibia 40.7749 0 0
lfoot 12.0757 30.0997 0
ltoes -25.977 0 0
rfemur -48.0053 -16.5585 15.75
rtibia 54.539 0 0
rfoot -0.0744378 -15.5165 0
rtoes -7.97781 0 0
lowerback -1.72395 -1.55665 -0.831169
upperback 1.50475 -2.05843 0.305472
thorax 2.55007 -1.04436 0.697678
lowerneck -6.25553 -7.8406 -0.642066
upperneck -1.06721 -10.4926 6.35237
head 1.11719 -5.15413 1.77141
lclavicle 1.36664e-14 1.23246e-14 0
lhumerus -48.196 -31.2383 108.798
lradius 56.5039 0 0
lwrist 21.4254 0 0
lhand 4.31686 11.5271 0
lfingers 7.12502 0 0
lthumb 29.7182 39.165 0
rclavicle 1.36664e-14 1.23246e-14 0
rhumerus -26.9196 16.941 -79.7108
rradius 84.633 0 0
rwrist 1.97529 0 0
rhand -11.6873 -14.9178 0
rfingers 7.12502 0 0
rthumb 14.3584 -764.401 0
344
root 7.93332 16.1956 -19.7221 10.0373 17.2665 1.90273
lfemur -6.60819 11.2329 -7.23478
ltibia 42.3541 0 0
lfoot 12.1693 28.9592 0
ltoes -19.5004 0 0
rfemur -47.0965 -16.918 17.0038
rtibia 53.9456 0 0
rfoot -1.41928 -14.0961 0
rtoes -7.07707 0 0
lowerback -1.54292 -1.47095 -0.723682
upperback 1.55589 -1.94945 0.414795
thorax 2.49883 -0.98918 0.756985
lowerneck -6.36802 -7.57499 -0.635617
upperneck -0.776042 -10.1501 6.1733
head 1.20829 -4.97868 1.71864
lclavicle 7.37985e-15 1.31197e-14 0
lhumerus -48.0397 -30.5549 108.49
lradius 56.344 0 0
lwrist 20.9134 0 0
lhand 3.62835 11.1991 0
lfingers 7.12502 0 0
lthumb 29.0599 38.9432 0
rclavicle 7.37985e-15 1.31197e-14 0
rhumerus -28.0955 16.1953 -81.1755
rradius 84.0311 0 0
rwrist 2.63715 0 0
rhand -17.5946 -18.4975 0
rfingers 7.12502 0 0
rthumb 8.65978 -767.901 0
345
root 7.85516 16.2252 -19.5518 9.65949 15.6984 1.4507
lfemur -6.46889 10.6128 -6.58842
ltibia 43.9333 0 0
lfoot 12.2629 27.8187 0
ltoes -13.0239 0 0
rfemur -46.1877 -17.2776 18.2576
rtibia 53.3521 0 0
rfoot -2.76413 -12.6757 0
rtoes -6.17632 0 0
lowerback -1.36188 -1.38525 -0.616195
upperback 1.60702 -1.84046 0.524118
thorax 2.4476 -0.934 0.816292
lowerneck -6.48051 -7.30938 -0.629167
upperneck -0.484875 -9.80755 5.99422
head 1.29938 -4.80322 1.66587
lclavicle 1.0933e-15 1.39149e-14 0
lhumerus -47.8834 -29.8714 108.183
lradius 56.184 0 0
lwrist 20.4013 0 0
lhand 2.93984 10.871 0
lfingers 7.12502 0 0
lthumb 28.4016 38.7213 0
rclavicle 1.0933e-15 1.39149e-14 0
rhumerus -29.2715 15.4495 -82.6403
rradius 83.4292 0 0
rwrist 3.29902 0 0
rhand -23.5019 -22.0771 0
rfingers 7.12502 0 0
rthumb 2.96117 -771.402 0
346
root 7.777 16.2548 -19.3816 9.28168 14.1304 0.998664
lfemur -6.3296 9.99271 -5.94205
ltibia 45.5126 0 0
lfoot 12.3565 26.6782 0
ltoes -6.5473 0 0
rfemur -45.2789 -17.6371 19.5114
rtibia 52.7587 0 0
rfoot -4.10898 -11.2553 0
rtoes -5.27558 0 0
lowerback -1.18085 -1.29955 -0.508709
upperback 1.65816 -1.73148 0.633441
thorax 2.39636 -0.878819 0.875599
lowerneck -6.593 -7.04378 -0.622718
upperneck -0.193707 -9.46502 5.81515
head 1.39048 -4.62777 1.6131
lclavicle -5.19325e-15 1.471e-14 0
lhumerus -47.727 -29.188 107.876
lradius 56.0241 0 0
lwrist 19.8893 0 0
lhand 2.25132 10.543 0
lfingers 7.12502 0 0
lthumb 27.7432 38.4994 0
rclavicle -5.19325e-15 1.471e-14 0
rhumerus -30.4474 14.7037 -84.105
rradius 82.8273 0 0
rwrist 3.96088 0 0
rhand -29.4092 -25.6568 0
rfingers 7.12502 0 0
rthumb -2.73745 -774.902 0
